<?xml version="1.0" encoding="UTF-8" standalone="no"?>
<svg
   version="1.0"
   width="759pt"
   height="759pt"
   viewBox="0 0 759 759"
   preserveAspectRatio="xMidYMid"
   id="svg68"
   sodipodi:docname="Livic Home =7@91.svg"
   inkscape:version="1.2.2 (732a01da63, 2022-12-09)"
   inkscape:export-filename="Livic Home =7@91.png"
   inkscape:export-xdpi="379.44666"
   inkscape:export-ydpi="379.44666"
   xmlns:inkscape="http://www.inkscape.org/namespaces/inkscape"
   xmlns:sodipodi="http://sodipodi.sourceforge.net/DTD/sodipodi-0.dtd"
   xmlns:xlink="http://www.w3.org/1999/xlink"
   xmlns="http://www.w3.org/2000/svg"
   xmlns:svg="http://www.w3.org/2000/svg">
  <defs
     id="defs72">
    <linearGradient
       inkscape:collect="always"
       id="linearGradient1178">
      <stop
         style="stop-color:#ffe1ff;stop-opacity:1;"
         offset="0"
         id="stop1174" />
      <stop
         style="stop-color:#000000;stop-opacity:1;"
         offset="1"
         id="stop1176" />
    </linearGradient>
    <linearGradient
       inkscape:collect="always"
       id="linearGradient351">
      <stop
         style="stop-color:#2ba5a9;stop-opacity:1;"
         offset="0"
         id="stop347" />
      <stop
         style="stop-color:#5a0080;stop-opacity:1;"
         offset="1"
         id="stop349" />
    </linearGradient>
    <linearGradient
       inkscape:collect="always"
       xlink:href="#linearGradient351"
       id="linearGradient353"
       x1="-33.872726"
       y1="-10.663636"
       x2="787.22729"
       y2="504.32727"
       gradientUnits="userSpaceOnUse"
       gradientTransform="matrix(1.5197217,0,0,1.5197217,-190.08413,3.90794)" />
    <linearGradient
       inkscape:collect="always"
       xlink:href="#linearGradient1178"
       id="linearGradient1180"
       x1="807.29999"
       y1="49.55455"
       x2="244.00908"
       y2="323.67273"
       gradientUnits="userSpaceOnUse"
       gradientTransform="translate(20.072727,-16.309094)" />
  </defs>
  <sodipodi:namedview
     id="namedview70"
     pagecolor="#ffffff"
     bordercolor="#000000"
     borderopacity="0.25"
     inkscape:showpageshadow="2"
     inkscape:pageopacity="0.0"
     inkscape:pagecheckerboard="0"
     inkscape:deskcolor="#d1d1d1"
     inkscape:document-units="pt"
     showgrid="false"
     inkscape:zoom="0.5978261"
     inkscape:cx="570.39999"
     inkscape:cy="687.49089"
     inkscape:window-width="1920"
     inkscape:window-height="1057"
     inkscape:window-x="-8"
     inkscape:window-y="-8"
     inkscape:window-maximized="1"
     inkscape:current-layer="layer1" />
  <g
     inkscape:groupmode="layer"
     id="layer1"
     inkscape:label="fondo"
     style="display:inline">
    <path
       id="rect285"
       style="display:inline;fill:url(#linearGradient353);fill-opacity:1;stroke-width:1.13979"
       d="M -236.79537,-12.29879 V 771.29879 H 995.79537 V -12.29879 Z M 425.71051,150.3374 c 6.11658,0.0214 11.50878,0.34014 13.33244,1.02402 2.12762,0.75986 2.43261,5.0163 2.58458,31.61141 v 30.54507 l 25.68314,22.03669 c 24.77144,21.12412 28.72349,25.53209 26.59588,28.87546 -2.43156,3.7993 -8.35909,4.2e-4 -34.04236,-22.33945 L 432.35782,218.38204 V 189.6602 161.0875 H 420.95991 409.562 v 15.04658 c 0,12.30973 -0.45756,15.19722 -2.4332,15.95708 -3.1914,1.21576 -3.34355,1.06364 -22.18807,-15.34934 -14.58932,-12.76565 -16.71562,-14.13431 -19.14717,-12.31064 -1.51971,1.0638 -28.26626,24.1633 -59.42051,51.3663 -31.00229,27.20299 -57.90185,49.69608 -59.72552,49.84806 -3.49536,0.60789 -5.92854,-2.12688 -4.71276,-5.31828 0.60788,-1.6717 98.78207,-87.99339 120.21013,-105.62215 6.23085,-5.16705 6.84054,-5.01432 24.62127,10.6388 l 12.91615,11.24653 0.45635,-11.09515 c 0.30395,-6.07889 1.21639,-12.00596 2.12821,-13.06976 1.0448,-1.32976 13.24934,-2.12375 23.44363,-2.08813 z M 167.01797,311.35962 c 2.98272,0 5.54492,0.97327 7.68469,2.91848 2.20461,1.94525 3.30583,4.24705 3.30583,6.90554 0,2.85302 -1.10122,5.2188 -3.30583,7.09922 -2.2046,1.88039 -4.76682,2.82052 -7.68469,2.82052 -3.04754,0 -5.64064,-0.94013 -7.78041,-2.82052 -2.07492,-1.94525 -3.11216,-4.31104 -3.11216,-7.09922 0,-2.78818 1.10125,-5.12308 3.30583,-7.00348 2.20462,-1.8804 4.73372,-2.82054 7.58674,-2.82054 z m 88.995,0 c 2.98269,0 5.54491,0.97327 7.68468,2.91848 2.20462,1.94525 3.30584,4.24705 3.30584,6.90554 0,2.85302 -1.10122,5.2188 -3.30584,7.09922 -2.2046,1.88039 -4.76682,2.82052 -7.68468,2.82052 -3.04755,0 -5.64065,-0.94013 -7.78042,-2.82052 -2.07492,-1.94525 -3.11216,-4.31104 -3.11216,-7.09922 0,-2.78818 1.10124,-5.12308 3.30584,-7.00348 2.20461,-1.8804 4.73372,-2.82054 7.58674,-2.82054 z m -149.97828,8.85119 h 21.00822 v 52.13209 h 23.24551 v 14.7839 h -44.25373 z m 240.91892,0 h 21.88311 v 26.64931 h 20.71659 v -26.64931 h 21.98106 v 66.91599 h -21.98106 v -26.26195 h -20.71659 v 26.26195 h -21.88311 z m -41.53113,17.50648 c 6.28959,0 11.25072,1.29767 14.88184,3.89132 l -1.84771,12.93396 c -3.69596,-1.1023 -6.74369,-1.6518 -9.14283,-1.6518 -3.11236,0 -5.5775,0.90703 -7.39305,2.72258 -1.81556,1.75072 -2.72259,4.14961 -2.72259,7.19716 0,3.04754 0.90703,5.47955 2.72259,7.29512 1.81555,1.81553 4.21445,2.72258 7.19716,2.72258 2.59365,0 5.64138,-0.5495 9.14281,-1.6518 l 1.84771,13.61515 c -2.2046,1.1023 -4.44018,1.88134 -6.70963,2.33524 -2.26945,0.51873 -4.92878,0.77693 -7.9763,0.77693 -5.18732,0 -9.79092,-1.03724 -13.81107,-3.11217 -3.95533,-2.13976 -7.06705,-5.12128 -9.3365,-8.94692 -2.2046,-3.82562 -3.30807,-8.17102 -3.30807,-13.03413 0,-4.66856 1.16745,-8.91464 3.50174,-12.74029 2.3343,-3.82564 5.51225,-6.84248 9.5324,-9.04708 4.02016,-2.20462 8.49354,-3.30585 13.4215,-3.30585 z m 142.48948,0 c 5.51151,0 10.3733,1.07035 14.58799,3.21012 4.27954,2.07492 7.58768,4.99245 9.92197,8.75323 2.3343,3.76081 3.50175,8.10398 3.50175,13.03192 0,4.99279 -1.20057,9.40217 -3.59969,13.22781 -2.33429,3.76081 -5.64022,6.71143 -9.91976,8.85119 -4.21467,2.07493 -9.07871,3.11217 -14.59021,3.11217 -5.44668,0 -10.30848,-1.06813 -14.58799,-3.20789 -4.21469,-2.13977 -7.52285,-5.09039 -9.92197,-8.8512 -2.33429,-3.82562 -3.50174,-8.20414 -3.50174,-13.13208 0,-4.92794 1.20056,-9.27111 3.59968,-13.03192 2.39914,-3.82562 5.70507,-6.77627 9.91974,-8.85117 4.27954,-2.07494 9.14355,-3.11218 14.59023,-3.11218 z m 72.45911,0 c 3.82564,0 7.13379,0.97327 9.92198,2.91849 2.85302,1.88041 4.99149,4.4404 6.41799,7.68246 4.14986,-7.0677 10.18132,-10.60095 18.09197,-10.60095 3.7608,0 7.03586,1.00414 9.82401,3.01421 2.85304,2.01009 5.05774,4.92984 6.61391,8.75547 1.55619,3.76081 2.33301,8.20109 2.33301,13.32354 v 24.31629 h -20.52069 v -24.31629 c 0,-3.30689 -0.58484,-5.80291 -1.75198,-7.48878 -1.1023,-1.68587 -2.65816,-2.52891 -4.66825,-2.52891 -2.2046,0 -4.11799,0.94013 -5.73903,2.82053 -1.55617,1.88041 -2.333,4.14908 -2.333,6.80759 v 24.70586 h -20.32924 v -24.31629 c 0,-3.30689 -0.58262,-5.80291 -1.74977,-7.48878 -1.1023,-1.68587 -2.69127,-2.52891 -4.76619,-2.52891 -2.20462,0 -4.08489,0.94013 -5.64109,2.82053 -1.55619,1.88041 -2.33523,4.14908 -2.33523,6.80759 v 24.70586 h -20.5207 v -48.0471 h 19.54788 v 9.91974 c 2.20458,-3.82564 4.70284,-6.64604 7.49099,-8.46161 2.85304,-1.8804 6.22295,-2.82054 10.11343,-2.82054 z m 87.14729,0 c 4.79826,0 8.88324,1.07035 12.25497,3.21012 3.43659,2.07492 5.99881,4.92846 7.68469,8.55956 1.68588,3.56629 2.52892,7.58502 2.52892,12.05908 0,1.16715 -0.0663,2.01018 -0.19591,2.52891 l -29.17821,3.79338 c 0.77809,2.26944 2.04266,3.9224 3.79337,4.95987 1.75072,0.97262 4.05251,1.46036 6.90553,1.46036 4.40921,0 9.17614,-1.13435 14.29859,-3.4038 l 2.43096,13.03192 c -6.03022,2.65848 -12.64431,3.98704 -19.84171,3.98704 -5.38184,0 -10.17963,-1.06813 -14.39432,-3.20789 -4.14984,-2.2046 -7.39177,-5.18835 -9.72607,-8.94914 -2.33429,-3.82564 -3.50174,-8.13793 -3.50174,-12.93619 0,-4.92793 1.20056,-9.30421 3.59969,-13.12987 2.39914,-3.82562 5.64108,-6.77627 9.72607,-8.85117 4.08501,-2.07494 8.62238,-3.11218 13.61517,-3.11218 z m -450.80971,0.68121 h 20.61864 v 29.08026 c 0,1.49135 0.39065,2.6588 1.16875,3.50174 0.84293,0.7781 1.91105,1.16651 3.20789,1.16651 1.2968,0 2.62759,-0.38841 3.98927,-1.16651 l 1.06854,13.51944 c -1.42652,1.10229 -3.30681,1.94534 -5.64107,2.52891 -2.26946,0.58358 -4.63524,0.87488 -7.09921,0.87488 -5.44668,0 -9.69496,-1.75009 -12.74252,-5.25149 -3.04753,-3.50144 -4.57029,-8.26615 -4.57029,-14.29637 z m 28.98455,0 h 22.56429 l 7.48879,29.1782 7.29511,-29.1782 h 17.7981 l -15.46287,48.7283 h -23.63509 z m 60.01045,0 h 20.61864 v 29.08026 c 0,1.49135 0.39063,2.6588 1.16872,3.50174 0.84295,0.7781 1.91107,1.16651 3.20789,1.16651 1.29684,0 2.6276,-0.38841 3.98927,-1.16651 l 1.06856,13.51944 c -1.42651,1.10229 -3.3068,1.94534 -5.64107,2.52891 -2.26946,0.58358 -4.63524,0.87488 -7.09921,0.87488 -5.44668,0 -9.69497,-1.75009 -12.74252,-5.25149 -3.04754,-3.50144 -4.57028,-8.26615 -4.57028,-14.29637 z m 361.81471,11.08847 c -2.3343,0 -4.18146,0.87395 -5.54313,2.62464 -1.36167,1.75072 -2.07449,4.02164 -2.13934,6.80981 l 15.07552,-3.30807 c -1.03744,-4.08498 -3.50257,-6.12638 -7.39305,-6.12638 z m -159.50845,2.62464 c -2.65848,0 -4.86319,1.00636 -6.61391,3.01645 -1.68587,1.94524 -2.52891,4.47211 -2.52891,7.5845 0,3.11239 0.84304,5.67461 2.52891,7.68469 1.75072,1.94524 3.95543,2.91849 6.61391,2.91849 2.65851,0 4.83008,-0.97325 6.51595,-2.91849 1.75072,-2.01008 2.62464,-4.5723 2.62464,-7.68469 0,-3.11239 -0.87392,-5.63926 -2.62464,-7.5845 -1.68587,-2.01009 -3.85744,-3.01645 -6.51595,-3.01645 z m -266.72452,60.70502 h 4.2208 v 25.78778 h -4.2208 z m 155.63272,0 h 4.43451 v 4.57698 h -4.43451 z m 177.33549,0 h 4.4345 v 4.57698 h -4.4345 z m -360.51242,1.95901 h 8.2813 c 1.76905,0 3.1938,0.1781 4.27422,0.53428 0.80735,0.2612 1.50785,0.60551 2.10149,1.03293 0.59364,0.41556 1.08043,0.88453 1.46036,1.40693 0.3918,0.51054 0.67674,1.05668 0.85484,1.63846 0.18997,0.5699 0.28495,1.14572 0.28495,1.7275 0,1.03289 -0.23152,1.98275 -0.69456,2.84948 -0.46304,0.85484 -1.22883,1.56721 -2.29739,2.1371 v 0.0713 c 0.59364,0.20183 1.13386,0.46304 1.62064,0.78361 0.49865,0.30869 0.92015,0.68268 1.26446,1.12198 0.35617,0.42743 0.62925,0.91421 0.81922,1.46035 0.20183,0.54616 0.30276,1.1576 0.30276,1.83437 0,0.58176 -0.095,1.20507 -0.28495,1.86995 -0.1781,0.66488 -0.49865,1.31196 -0.9617,1.94122 -0.46304,0.61739 -1.08043,1.18728 -1.85216,1.70969 -0.77173,0.5224 -1.74531,0.93795 -2.92072,1.24664 -0.29682,0.0713 -0.62331,0.13647 -0.97951,0.19591 -0.3443,0.0594 -0.73018,0.11276 -1.1576,0.16028 -0.42742,0.0356 -0.90233,0.0654 -1.42474,0.0891 -0.5224,0.0122 -1.11011,0.0178 -1.7631,0.0178 h -6.92781 z m 234.58775,0 h 6.09076 l 4.11393,11.34448 c 0.68863,1.88778 1.3357,3.91804 1.94122,6.09077 h 0.10683 c 0.52241,-1.87591 1.16947,-3.88836 1.9412,-6.03734 l 4.11394,-11.39791 h 6.12637 v 23.82877 h -4.36325 v -12.07466 c 0,-1.76907 0.0713,-3.82306 0.2137,-6.162 h -0.16027 c -0.20185,0.67674 -0.43931,1.4366 -0.71237,2.27958 -0.27308,0.84297 -0.55803,1.67406 -0.85484,2.49328 l -4.93317,13.4638 h -2.81386 l -4.93315,-13.4638 c -0.29683,-0.81922 -0.58178,-1.65031 -0.85485,-2.49328 -0.27307,-0.84298 -0.51053,-1.60284 -0.71236,-2.27958 h -0.16029 c 0.1424,2.19647 0.2137,4.24453 0.2137,6.14419 v 12.09247 h -4.36325 z m 161.88375,1.74531 h 4.22078 v 4.8263 h 4.98659 v 3.47281 h -4.98659 v 8.38815 c 0,0.66488 0.10091,1.1576 0.30276,1.47816 0.35619,0.54615 1.06262,0.81923 2.1193,0.81923 0.48679,0 0.96763,-0.0356 1.44255,-0.10683 0.48679,-0.0831 0.9439,-0.18403 1.37132,-0.30276 v 3.49062 c -0.47491,0.14239 -1.04481,0.25526 -1.70969,0.33838 -0.65301,0.0831 -1.26445,0.12461 -1.83435,0.12461 -1.44849,0 -2.6358,-0.23153 -3.56185,-0.69455 -0.91422,-0.47492 -1.56128,-1.15168 -1.94121,-2.03026 -0.27308,-0.62926 -0.40961,-1.48412 -0.40961,-2.56453 v -8.94024 h -3.22347 v -3.4728 h 3.22347 z m -392.10822,1.90558 v 6.162 h 3.93583 c 1.18729,0 2.07181,-0.11869 2.65357,-0.35618 0.65301,-0.27308 1.11606,-0.64706 1.38914,-1.12198 0.28494,-0.48679 0.42742,-1.03294 0.42742,-1.63845 0,-0.62926 -0.16029,-1.18729 -0.48086,-1.67407 -0.32057,-0.49867 -0.86671,-0.86671 -1.63844,-1.10417 -0.32057,-0.095 -0.69457,-0.16028 -1.122,-0.19591 -0.42742,-0.0474 -0.95575,-0.0713 -1.585,-0.0713 z m 43.84856,2.4933 c 1.25852,0 2.35677,0.15434 3.29471,0.46304 0.94982,0.30869 1.73936,0.73611 2.36864,1.28227 0.64112,0.53427 1.11603,1.16947 1.42473,1.90558 0.32056,0.73612 0.48084,1.53753 0.48084,2.40424 v 6.50039 c 0,1.13979 0.0122,2.11929 0.0356,2.93851 0.0237,0.81923 0.0474,1.54941 0.0713,2.19055 h -3.81119 l -0.17808,-1.83435 h -0.0713 c -0.23746,0.24932 -0.52241,0.50459 -0.85485,0.76578 -0.33244,0.26121 -0.71237,0.51054 -1.13979,0.748 -0.42742,0.22558 -0.90233,0.40961 -1.42474,0.55208 -0.5224,0.1424 -1.08635,0.21372 -1.69187,0.21372 -0.81922,0 -1.58503,-0.13054 -2.2974,-0.39182 -0.71237,-0.24932 -1.32381,-0.61144 -1.83435,-1.08635 -0.51053,-0.48679 -0.9142,-1.06855 -1.21103,-1.74531 -0.28495,-0.68862 -0.42742,-1.45442 -0.42742,-2.2974 0,-0.92607 0.16622,-1.75717 0.49866,-2.49328 0.34431,-0.73612 0.81922,-1.35944 1.42474,-1.86997 0.60552,-0.51054 1.32976,-0.8964 2.17273,-1.15761 0.84296,-0.27307 1.77499,-0.40961 2.79605,-0.40961 0.74799,0 1.43661,0.0474 2.06588,0.1424 0.62925,0.095 1.18134,0.20778 1.65625,0.33838 v -0.69456 c 0,-0.40368 -0.0713,-0.78955 -0.21372,-1.1576 -0.13054,-0.37993 -0.35023,-0.71237 -0.65893,-0.99732 -0.29682,-0.29683 -0.68862,-0.52834 -1.17542,-0.69455 -0.48678,-0.1781 -1.08041,-0.26716 -1.78091,-0.26716 -0.85485,0 -1.70969,0.095 -2.56453,0.28495 -0.85485,0.18997 -1.78094,0.47492 -2.77825,0.85485 v -3.2947 c 0.86671,-0.37993 1.78686,-0.67082 2.76043,-0.87265 0.97357,-0.20185 1.99464,-0.30871 3.06319,-0.32058 z m 27.17022,0 c 0.62925,0 1.2348,0.0713 1.81654,0.2137 0.59365,0.1424 1.13386,0.36807 1.62064,0.67677 0.48679,0.29681 0.91421,0.68861 1.28227,1.1754 0.37993,0.47491 0.67675,1.0448 0.89046,1.70968 0.11869,0.36806 0.1959,0.77175 0.23152,1.21104 0.0474,0.42742 0.0713,0.92607 0.0713,1.49597 v 11.20202 h -4.2208 v -10.54307 c 0,-0.46305 -0.0178,-0.86079 -0.0533,-1.19323 -0.0356,-0.33244 -0.10091,-0.62331 -0.1959,-0.87265 -0.21371,-0.54614 -0.54022,-0.93794 -0.97951,-1.1754 -0.42742,-0.23746 -0.94983,-0.35619 -1.56721,-0.35619 -0.81922,0 -1.60877,0.1959 -2.36863,0.5877 -0.74799,0.37993 -1.41287,0.93796 -1.99463,1.67407 v 11.87877 h -4.2208 v -17.25716 h 3.49062 l 0.3918,2.40425 h 0.0713 c 0.24934,-0.35618 0.56397,-0.70643 0.9439,-1.05075 0.37993,-0.34431 0.8133,-0.64707 1.30008,-0.90826 0.48678,-0.26121 1.02108,-0.46899 1.60282,-0.62333 0.59365,-0.16622 1.2229,-0.24933 1.88778,-0.24933 z m 22.3595,0 c 1.03294,0 1.95902,0.21965 2.77825,0.65894 0.83109,0.42742 1.51377,0.99731 2.04805,1.70968 h 0.0713 l 0.1781,-1.9412 h 3.70432 v 25.53845 h -4.2208 v -7.17712 c 0,-0.51054 0.006,-0.97951 0.0178,-1.40693 0.0122,-0.43929 0.0237,-0.77767 0.0356,-1.01513 h -0.0356 c -0.26119,0.21372 -0.56395,0.42742 -0.90826,0.64114 -0.33244,0.20183 -0.7005,0.3918 -1.10418,0.56989 -0.40367,0.16622 -0.84296,0.29682 -1.31788,0.3918 -0.47491,0.10684 -0.97952,0.16029 -1.51379,0.16029 -0.9142,0 -1.81061,-0.16029 -2.68919,-0.48086 -0.86672,-0.33243 -1.64439,-0.8489 -2.33302,-1.5494 -0.67675,-0.71237 -1.22289,-1.62657 -1.63844,-2.74262 -0.40369,-1.11604 -0.60552,-2.43987 -0.60552,-3.97146 0,-1.51972 0.20778,-2.87326 0.62333,-4.0605 0.42742,-1.18728 0.99137,-2.17273 1.69188,-2.95635 0.7005,-0.78359 1.50191,-1.3713 2.40424,-1.7631 0.9142,-0.40368 1.85216,-0.60552 2.81386,-0.60552 z m 50.88323,0 c 1.0923,0 2.09554,0.16621 3.00976,0.49865 0.92604,0.33244 1.72156,0.85485 2.38643,1.56722 0.67675,0.71236 1.19916,1.63251 1.56722,2.76043 0.37993,1.11604 0.56989,2.43987 0.56989,3.97146 -0.0122,0.59365 -0.0296,1.09824 -0.0535,1.5138 h -11.30886 c 0.0594,0.79546 0.23746,1.47815 0.53427,2.04805 0.29682,0.55803 0.68269,1.01513 1.15761,1.37132 0.48678,0.34431 1.05073,0.59958 1.69187,0.76579 0.64113,0.15434 1.33569,0.23153 2.08368,0.23153 0.81922,0 1.67406,-0.0831 2.56453,-0.24934 0.89046,-0.16622 1.7928,-0.40367 2.707,-0.71237 v 3.36595 c -0.54614,0.23746 -1.38319,0.46303 -2.51109,0.67675 -1.12793,0.2137 -2.2974,0.32057 -3.50843,0.32057 -1.22289,0 -2.38644,-0.15436 -3.49061,-0.46304 -1.0923,-0.32057 -2.04807,-0.83111 -2.86729,-1.5316 -0.81922,-0.7005 -1.47223,-1.60877 -1.95901,-2.72481 -0.47491,-1.11605 -0.71237,-2.46955 -0.71237,-4.06051 0,-1.56722 0.22559,-2.93852 0.67675,-4.11394 0.45116,-1.1754 1.05668,-2.14897 1.81654,-2.9207 0.75986,-0.77175 1.62659,-1.34757 2.60015,-1.7275 0.98545,-0.3918 2.00058,-0.58771 3.04539,-0.58771 z m 25.78109,0 c 0.42742,0 0.79548,0.0237 1.10417,0.0713 v 3.70432 h -0.35618 c -1.29414,0 -2.43393,0.1959 -3.41938,0.5877 -0.97356,0.37993 -1.72749,0.96764 -2.26177,1.76312 v 11.5582 h -4.2208 v -17.25715 h 3.49062 l 0.3918,2.40424 h 0.0713 c 0.49865,-0.87858 1.18134,-1.56721 2.04805,-2.06586 0.8786,-0.51054 1.92935,-0.7658 3.15224,-0.7658 z m 29.47652,0 c 1.25851,0 2.35675,0.15434 3.29471,0.46304 0.94982,0.30869 1.73937,0.73611 2.36862,1.28227 0.64114,0.53427 1.11606,1.16947 1.42474,1.90558 0.32057,0.73612 0.48086,1.53753 0.48086,2.40424 v 6.50039 c 0,1.13979 0.0122,2.11929 0.0356,2.93851 0.0237,0.81923 0.0474,1.54941 0.0713,2.19055 h -3.81117 l -0.1781,-1.83435 h -0.0713 c -0.23746,0.24932 -0.52241,0.50459 -0.85485,0.76578 -0.33243,0.26121 -0.71236,0.51054 -1.13979,0.748 -0.42742,0.22558 -0.90233,0.40961 -1.42474,0.55208 -0.5224,0.1424 -1.08635,0.21372 -1.69187,0.21372 -0.81922,0 -1.58503,-0.13054 -2.29739,-0.39182 -0.71237,-0.24932 -1.32382,-0.61144 -1.83435,-1.08635 -0.51052,-0.48679 -0.91421,-1.06855 -1.21103,-1.74531 -0.28494,-0.68862 -0.42742,-1.45442 -0.42742,-2.2974 0,-0.92607 0.16622,-1.75717 0.49865,-2.49328 0.34433,-0.73612 0.81924,-1.35944 1.42474,-1.86997 0.60552,-0.51054 1.32976,-0.8964 2.17273,-1.15761 0.84298,-0.27307 1.77499,-0.40961 2.79605,-0.40961 0.74799,0 1.43662,0.0474 2.06588,0.1424 0.62925,0.095 1.18134,0.20778 1.65625,0.33838 v -0.69456 c 0,-0.40368 -0.0713,-0.78955 -0.2137,-1.1576 -0.13055,-0.37993 -0.35025,-0.71237 -0.65895,-0.99732 -0.29682,-0.29683 -0.68862,-0.52834 -1.1754,-0.69455 -0.4868,-0.1781 -1.08043,-0.26716 -1.78093,-0.26716 -0.85485,0 -1.70969,0.095 -2.56453,0.28495 -0.85485,0.18997 -1.78092,0.47492 -2.77824,0.85485 v -3.2947 c 0.86672,-0.37993 1.78686,-0.67082 2.76043,-0.87265 0.97357,-0.20185 1.99463,-0.30871 3.06319,-0.32058 z m 71.94263,0 c 1.25853,0 2.35677,0.15434 3.29471,0.46304 0.94983,0.30869 1.73937,0.73611 2.36864,1.28227 0.64113,0.53427 1.11604,1.16947 1.42474,1.90558 0.32056,0.73612 0.48084,1.53753 0.48084,2.40424 v 6.50039 c 0,1.13979 0.0122,2.11929 0.0356,2.93851 0.0237,0.81923 0.0474,1.54941 0.0713,2.19055 h -3.81117 l -0.1781,-1.83435 h -0.0713 c -0.23745,0.24932 -0.5224,0.50459 -0.85484,0.76578 -0.33244,0.26121 -0.71237,0.51054 -1.13979,0.748 -0.42742,0.22558 -0.90234,0.40961 -1.42474,0.55208 -0.5224,0.1424 -1.08636,0.21372 -1.69188,0.21372 -0.81922,0 -1.58502,-0.13054 -2.29739,-0.39182 -0.71237,-0.24932 -1.32381,-0.61144 -1.83435,-1.08635 -0.51053,-0.48679 -0.9142,-1.06855 -1.21103,-1.74531 -0.28495,-0.68862 -0.42743,-1.45442 -0.42743,-2.2974 0,-0.92607 0.16623,-1.75717 0.49867,-2.49328 0.34431,-0.73612 0.81922,-1.35944 1.42474,-1.86997 0.60552,-0.51054 1.32976,-0.8964 2.17273,-1.15761 0.84296,-0.27307 1.77499,-0.40961 2.79604,-0.40961 0.748,0 1.43664,0.0474 2.06587,0.1424 0.62927,0.095 1.18135,0.20778 1.65627,0.33838 v -0.69456 c 0,-0.40368 -0.0713,-0.78955 -0.21372,-1.1576 -0.13055,-0.37993 -0.35025,-0.71237 -0.65894,-0.99732 -0.29681,-0.29683 -0.68863,-0.52834 -1.17541,-0.69455 -0.48678,-0.1781 -1.08043,-0.26716 -1.78092,-0.26716 -0.85484,0 -1.70968,0.095 -2.56453,0.28495 -0.85484,0.18997 -1.78093,0.47492 -2.77825,0.85485 v -3.2947 c 0.86672,-0.37993 1.78686,-0.67082 2.76044,-0.87265 0.97357,-0.20185 1.99464,-0.30871 3.06318,-0.32058 z m 49.15574,0 c 1.35349,0 2.56453,0.21965 3.63307,0.65894 1.08043,0.42742 1.99464,1.03888 2.74263,1.83435 0.74799,0.79548 1.31789,1.75125 1.70969,2.86729 0.40368,1.11605 0.60551,2.35082 0.60551,3.70432 0,1.35351 -0.20183,2.58828 -0.60551,3.70432 -0.40367,1.11605 -0.98545,2.07181 -1.74531,2.86729 -0.74798,0.79548 -1.65626,1.41287 -2.72482,1.85216 -1.06852,0.42742 -2.2618,0.64114 -3.57964,0.64114 -1.35351,0 -2.57047,-0.21372 -3.65091,-0.64114 -1.06854,-0.43929 -1.97682,-1.05668 -2.72481,-1.85216 -0.74798,-0.79548 -1.32382,-1.75124 -1.7275,-2.86729 -0.3918,-1.11604 -0.58769,-2.35081 -0.58769,-3.70432 0,-1.3535 0.20183,-2.58827 0.6055,-3.70432 0.40369,-1.11604 0.97952,-2.07181 1.7275,-2.86729 0.75986,-0.79547 1.67408,-1.40693 2.74263,-1.83435 1.06854,-0.43929 2.26177,-0.65894 3.57966,-0.65894 z m 26.76061,0 c 0.42737,0 0.79546,0.0237 1.10417,0.0713 v 3.70432 h -0.3562 c -1.29413,0 -2.43392,0.1959 -3.41937,0.5877 -0.97356,0.37993 -1.7275,0.96764 -2.26177,1.76312 v 11.5582 h -4.22079 v -17.25715 h 3.49061 l 0.39181,2.40424 h 0.0713 c 0.49865,-0.87858 1.18134,-1.56721 2.04807,-2.06586 0.87858,-0.51054 1.92933,-0.7658 3.15223,-0.7658 z m 28.65728,0 c 1.05668,0 2.04807,0.0891 2.97414,0.26714 0.92608,0.16622 1.76312,0.38587 2.5111,0.65893 v 3.43719 c -0.3918,-0.13055 -0.80735,-0.24933 -1.24664,-0.35618 -0.42742,-0.11869 -0.86672,-0.21964 -1.31789,-0.30276 -0.43929,-0.0831 -0.87858,-0.14847 -1.31787,-0.1959 -0.43931,-0.0594 -0.85485,-0.0891 -1.24666,-0.0891 -0.49865,0 -0.92015,0.0474 -1.26445,0.1424 -0.34431,0.095 -0.62332,0.22558 -0.83704,0.3918 -0.2137,0.15434 -0.36806,0.33838 -0.46304,0.55208 -0.095,0.20185 -0.1424,0.41555 -0.1424,0.64114 0,0.3918 0.10091,0.71237 0.30276,0.9617 0.21372,0.24932 0.50459,0.45117 0.87265,0.60551 0.36807,0.15435 0.75394,0.28495 1.15761,0.3918 0.40367,0.095 0.79548,0.18997 1.17541,0.28495 0.59363,0.1424 1.18728,0.31463 1.78092,0.51646 0.59365,0.20185 1.12792,0.4868 1.60283,0.85485 0.47491,0.35619 0.86079,0.82516 1.1576,1.40694 0.30869,0.5699 0.46305,1.30006 0.46305,2.19053 0,0.97358 -0.18404,1.82248 -0.5521,2.54672 -0.36802,0.72425 -0.88452,1.32975 -1.5494,1.81655 -0.653,0.47491 -1.44255,0.82515 -2.36863,1.05074 -0.9142,0.23745 -1.9234,0.35619 -3.02757,0.35619 -1.0923,0 -2.07775,-0.0891 -2.95633,-0.26714 -0.86671,-0.16623 -1.58502,-0.37993 -2.15492,-0.64114 v -3.40156 c 0.92609,0.34431 1.78093,0.58176 2.56453,0.71237 0.78361,0.11869 1.5138,0.17809 2.19054,0.17809 0.52241,0 1.00922,-0.0356 1.46035,-0.10683 0.45117,-0.0831 0.83705,-0.20776 1.1576,-0.37399 0.33244,-0.16621 0.59365,-0.37399 0.78361,-0.62333 0.18997,-0.26119 0.28495,-0.5699 0.28495,-0.92607 0,-0.36806 -0.10683,-0.67082 -0.32057,-0.90828 -0.20183,-0.23746 -0.47491,-0.43335 -0.81922,-0.58771 -0.34431,-0.16621 -0.74205,-0.30868 -1.19322,-0.42742 -0.43929,-0.11869 -0.90234,-0.23745 -1.38912,-0.35617 -0.61739,-0.16623 -1.21104,-0.3562 -1.78093,-0.5699 -0.56985,-0.22559 -1.07449,-0.51646 -1.51378,-0.87265 -0.42742,-0.35618 -0.77173,-0.80141 -1.03294,-1.3357 -0.24933,-0.54615 -0.37399,-1.21102 -0.37399,-1.99464 0,-0.96166 0.17216,-1.79278 0.51646,-2.49328 0.34433,-0.71237 0.80736,-1.30008 1.38914,-1.76312 0.59363,-0.46303 1.27632,-0.80736 2.04805,-1.03293 0.78361,-0.22559 1.60878,-0.33838 2.47549,-0.33838 z m 40.46481,0 c 1.25853,0 2.35677,0.15434 3.29471,0.46304 0.94983,0.30869 1.73937,0.73611 2.36864,1.28227 0.64112,0.53427 1.11604,1.16947 1.42474,1.90558 0.32055,0.73612 0.48084,1.53753 0.48084,2.40424 v 6.50039 c 0,1.13979 0.0122,2.11929 0.0356,2.93851 0.0237,0.81923 0.0474,1.54941 0.0713,2.19055 h -3.81117 l -0.17809,-1.83435 h -0.0713 c -0.23746,0.24932 -0.5224,0.50459 -0.85484,0.76578 -0.33244,0.26121 -0.71237,0.51054 -1.13979,0.748 -0.42743,0.22558 -0.90234,0.40961 -1.42474,0.55208 -0.52241,0.1424 -1.08636,0.21372 -1.69188,0.21372 -0.81922,0 -1.58502,-0.13054 -2.29739,-0.39182 -0.71237,-0.24932 -1.32382,-0.61144 -1.83435,-1.08635 -0.51054,-0.48679 -0.91421,-1.06855 -1.21104,-1.74531 -0.28495,-0.68862 -0.42742,-1.45442 -0.42742,-2.2974 0,-0.92607 0.16623,-1.75717 0.49867,-2.49328 0.3443,-0.73612 0.81922,-1.35944 1.42474,-1.86997 0.60551,-0.51054 1.32975,-0.8964 2.17273,-1.15761 0.84296,-0.27307 1.77499,-0.40961 2.79604,-0.40961 0.74799,0 1.43664,0.0474 2.06587,0.1424 0.62927,0.095 1.18135,0.20778 1.65626,0.33838 v -0.69456 c 0,-0.40368 -0.0713,-0.78955 -0.21371,-1.1576 -0.13055,-0.37993 -0.35025,-0.71237 -0.65894,-0.99732 -0.29682,-0.29683 -0.68863,-0.52834 -1.17541,-0.69455 -0.48679,-0.1781 -1.08044,-0.26716 -1.78092,-0.26716 -0.85484,0 -1.70969,0.095 -2.56453,0.28495 -0.85484,0.18997 -1.78093,0.47492 -2.77825,0.85485 v -3.2947 c 0.86671,-0.37993 1.78686,-0.67082 2.76044,-0.87265 0.97356,-0.20185 1.99463,-0.30871 3.06318,-0.32058 z m -304.71383,0.42742 h 4.22078 v 10.09784 c 0,0.58176 0.0415,1.08636 0.12462,1.51378 0.0831,0.41555 0.20778,0.77767 0.37399,1.08637 0.28495,0.52241 0.68863,0.91421 1.21104,1.17541 0.5224,0.24933 1.14573,0.37399 1.86997,0.37399 0.75986,0 1.40693,-0.14239 1.9412,-0.42742 0.54616,-0.28495 0.95577,-0.71831 1.22885,-1.30007 0.27306,-0.55803 0.40961,-1.3357 0.40961,-2.33302 v -10.18688 h 4.22078 v 10.54307 c 0,1.40099 -0.2434,2.58234 -0.73018,3.54404 -0.27308,0.54616 -0.62926,1.04481 -1.06855,1.49598 -0.42742,0.43929 -0.93795,0.81922 -1.5316,1.13979 -0.58177,0.30869 -1.24665,0.54615 -1.99464,0.71237 -0.73607,0.17808 -1.56127,0.26714 -2.47547,0.26714 -1.73344,0 -3.17005,-0.29089 -4.30984,-0.87266 -1.13979,-0.59364 -2.00058,-1.38916 -2.58234,-2.38643 -0.30869,-0.53429 -0.54022,-1.12199 -0.69456,-1.76312 -0.1424,-0.64114 -0.2137,-1.35351 -0.2137,-2.13711 z m 67.13415,0 h 4.22078 v 17.25716 h -4.22078 z m 107.88613,0 h 4.52354 l 2.58235,6.25104 c 0.97358,2.37457 1.66219,4.13175 2.06588,5.27154 h 0.0713 c 0.29682,-0.89047 0.92609,-2.54079 1.88778,-4.95097 l 2.67139,-6.57161 h 4.57697 l -11.11296,25.53845 h -4.16737 l 3.95366,-9.24299 z m 69.44935,0 h 4.2208 v 17.25716 h -4.2208 z m -212.04792,2.86729 c -0.53427,0 -1.00918,0.10091 -1.42474,0.30276 -0.41555,0.18997 -0.77767,0.4571 -1.08635,0.80141 -0.29684,0.33244 -0.53429,0.72424 -0.71237,1.17541 -0.1781,0.45116 -0.29684,0.93202 -0.3562,1.44255 h 6.78533 c 0,-0.51053 -0.0713,-0.99139 -0.21372,-1.44255 -0.13054,-0.45117 -0.33243,-0.84297 -0.60551,-1.17541 -0.2612,-0.34431 -0.59364,-0.61144 -0.99732,-0.80141 -0.3918,-0.20185 -0.85484,-0.30276 -1.38912,-0.30276 z m -49.93933,0.0713 c -0.42742,0 -0.87859,0.0891 -1.35349,0.26713 -0.46305,0.16623 -0.90234,0.46899 -1.31789,0.90828 -0.41555,0.43929 -0.75393,1.05075 -1.01513,1.83435 -0.24932,0.77173 -0.37399,1.71563 -0.37399,2.83167 0,0.86672 0.0831,1.64438 0.24933,2.33301 0.16621,0.67675 0.41555,1.25851 0.74799,1.74531 0.33244,0.47492 0.74205,0.84296 1.22883,1.10417 0.49865,0.24933 1.07449,0.37399 1.7275,0.37399 0.42742,0 0.83109,-0.0535 1.21102,-0.16029 0.37993,-0.10683 0.73018,-0.24338 1.05075,-0.40961 0.32057,-0.16621 0.60552,-0.35025 0.85485,-0.55208 0.26119,-0.20183 0.48085,-0.40367 0.65893,-0.60552 v -7.65797 c -0.43929,-0.53427 -0.97359,-0.99731 -1.60282,-1.38911 -0.62927,-0.40369 -1.31789,-0.61145 -2.06588,-0.62333 z m 226.34875,0.0891 c -0.61739,0 -1.19323,0.11869 -1.7275,0.35618 -0.52241,0.23746 -0.97358,0.59365 -1.35351,1.06856 -0.37993,0.47491 -0.67675,1.06262 -0.89045,1.76311 -0.21372,0.7005 -0.32057,1.50785 -0.32057,2.42205 0,0.91422 0.10683,1.72157 0.32057,2.42206 0.2137,0.7005 0.51052,1.28821 0.89045,1.76312 0.39181,0.46304 0.84891,0.81922 1.37132,1.06855 0.53427,0.23745 1.11604,0.35619 1.74531,0.35619 0.62925,0 1.20508,-0.11869 1.72748,-0.35619 0.5224,-0.24933 0.97358,-0.60551 1.35351,-1.06855 0.37993,-0.47491 0.67675,-1.06262 0.89047,-1.76312 0.2137,-0.70049 0.32055,-1.50784 0.32055,-2.42206 0,-0.9142 -0.10684,-1.72155 -0.32055,-2.42205 -0.21372,-0.70049 -0.51054,-1.2882 -0.89047,-1.76311 -0.37993,-0.47491 -0.83703,-0.8311 -1.37131,-1.06856 -0.53428,-0.23746 -1.11605,-0.35618 -1.7453,-0.35618 z m -320.61749,3.86461 v 6.71407 h 2.84948 c 0.75986,0 1.41285,-0.0178 1.95901,-0.0533 0.54614,-0.0474 1.01513,-0.11869 1.40693,-0.21372 0.60551,-0.13055 1.11011,-0.30276 1.51377,-0.51646 0.40369,-0.22559 0.73019,-0.47492 0.97953,-0.748 0.24932,-0.28494 0.42742,-0.59363 0.53427,-0.92607 0.10684,-0.34432 0.16028,-0.70644 0.16028,-1.08637 0,-0.66488 -0.18403,-1.24664 -0.55208,-1.7453 -0.36806,-0.49866 -0.9439,-0.87265 -1.7275,-1.12199 -0.34432,-0.10684 -0.74799,-0.18402 -1.21103,-0.23152 -0.46305,-0.0474 -1.05668,-0.0713 -1.78092,-0.0713 z m 44.22256,2.63576 c -1.03294,0 -1.85216,0.20778 -2.45768,0.62333 -0.59363,0.40367 -0.89046,1.027 -0.89046,1.86997 0,0.3918 0.0653,0.73611 0.1959,1.03292 0.1424,0.28495 0.3265,0.52241 0.55209,0.71237 0.23745,0.18997 0.51053,0.33244 0.81922,0.42743 0.3087,0.095 0.6352,0.14239 0.9795,0.14239 0.42743,0 0.83111,-0.0535 1.21104,-0.16028 0.37993,-0.11869 0.73018,-0.2612 1.05075,-0.42742 0.32056,-0.17808 0.6055,-0.37399 0.85484,-0.58769 0.2612,-0.21372 0.48084,-0.4215 0.65894,-0.62333 v -2.63578 c -0.40368,-0.095 -0.86671,-0.17808 -1.38912,-0.24932 -0.5224,-0.0831 -1.05075,-0.12462 -1.58502,-0.12462 z m 155.67055,0 c -1.03294,0 -1.85216,0.20778 -2.45768,0.62333 -0.59364,0.40367 -0.89045,1.027 -0.89045,1.86997 0,0.3918 0.0654,0.73611 0.19589,1.03292 0.1424,0.28495 0.32651,0.52241 0.55208,0.71237 0.23746,0.18997 0.51054,0.33244 0.81924,0.42743 0.30869,0.095 0.6352,0.14239 0.97951,0.14239 0.42742,0 0.83109,-0.0535 1.21102,-0.16028 0.37993,-0.11869 0.73018,-0.2612 1.05075,-0.42742 0.32057,-0.17808 0.60552,-0.37399 0.85484,-0.58769 0.2612,-0.21372 0.48086,-0.4215 0.65894,-0.62333 v -2.63578 c -0.40367,-0.095 -0.86672,-0.17808 -1.38912,-0.24932 -0.5224,-0.0831 -1.05075,-0.12462 -1.58502,-0.12462 z m 71.94265,0 c -1.03294,0 -1.85216,0.20778 -2.45768,0.62333 -0.59364,0.40367 -0.89047,1.027 -0.89047,1.86997 0,0.3918 0.0654,0.73611 0.19591,1.03292 0.1424,0.28495 0.3265,0.52241 0.55208,0.71237 0.23746,0.18997 0.51054,0.33244 0.81923,0.42743 0.3087,0.095 0.63519,0.14239 0.9795,0.14239 0.42742,0 0.83111,-0.0535 1.21104,-0.16028 0.37993,-0.11869 0.73018,-0.2612 1.05073,-0.42742 0.32057,-0.17808 0.60552,-0.37399 0.85485,-0.58769 0.26121,-0.21372 0.48085,-0.4215 0.65895,-0.62333 v -2.63578 c -0.40369,-0.095 -0.86671,-0.17808 -1.38912,-0.24932 -0.5224,-0.0831 -1.05075,-0.12462 -1.58502,-0.12462 z m 145.03843,0 c -1.03294,0 -1.85216,0.20778 -2.45767,0.62333 -0.59364,0.40367 -0.89047,1.027 -0.89047,1.86997 0,0.3918 0.0653,0.73611 0.19591,1.03292 0.14239,0.28495 0.32649,0.52241 0.55208,0.71237 0.23746,0.18997 0.51054,0.33244 0.81922,0.42743 0.3087,0.095 0.6352,0.14239 0.97951,0.14239 0.42742,0 0.8311,-0.0535 1.21103,-0.16028 0.37993,-0.11869 0.73019,-0.2612 1.05074,-0.42742 0.32057,-0.17808 0.60552,-0.37399 0.85484,-0.58769 0.26121,-0.21372 0.48086,-0.4215 0.65895,-0.62333 v -2.63578 c -0.40368,-0.095 -0.86671,-0.17808 -1.38911,-0.24932 -0.52241,-0.0831 -1.05075,-0.12462 -1.58503,-0.12462 z" />
  </g>
  <g
     inkscape:groupmode="layer"
     id="layer2"
     inkscape:label="prefusion"
     style="display:none">
    <rect
       style="fill:url(#linearGradient1180);fill-opacity:1;stroke-width:0.75"
       id="rect1172"
       width="627.27271"
       height="319.90909"
       x="84.054543"
       y="75.272736" />
  </g>
  <g
     transform="matrix(0.1,0,0,-0.1,5.0181818,453.34545)"
     fill="#000000"
     stroke="none"
     id="g66"
     style="display:none">
    <path
       d="m 2066,2414 c -36,-36 -9,-94 44,-94 30,0 60,30 60,61 0,41 -73,65 -104,33 z"
       id="path4" />
    <path
       d="m 2736,2414 c -36,-35 -6,-94 47,-94 27,0 57,32 57,61 0,41 -73,65 -104,33 z"
       id="path6" />
    <path
       d="m 1580,2140 v -270 h 200 200 v 45 45 h -140 -140 l -2,223 -3,222 -57,3 -58,3 z"
       id="path8" />
    <path
       d="m 3660,2140 v -270 h 55 54 l 3,103 3,102 128,3 127,3 v -106 -105 h 55 55 v 270 270 h -55 -55 v -115 -115 h -130 -130 v 115 115 h -55 -55 z"
       id="path10" />
    <path
       d="m 3094,2270 c -194,-46 -223,-299 -46,-389 49,-25 145,-28 195,-7 31,12 97,77 97,95 0,4 -19,15 -41,24 -41,16 -42,16 -70,-8 -37,-31 -63,-38 -104,-31 -84,16 -116,133 -54,195 41,42 103,43 149,4 31,-26 34,-26 73,-12 22,8 42,19 44,26 7,21 -69,83 -120,98 -55,16 -75,17 -123,5 z"
       id="path12" />
    <path
       d="m 4389,2264 c -95,-29 -161,-142 -139,-239 37,-162 251,-223 369,-104 46,45 62,84 62,144 0,96 -65,181 -157,204 -54,14 -78,13 -135,-5 z m 144,-105 c 76,-59 41,-190 -55,-205 -108,-18 -171,124 -88,199 39,34 104,38 143,6 z"
       id="path14" />
    <path
       d="m 4928,2259 c -32,-16 -38,-17 -38,-4 0,12 -12,15 -55,15 h -55 v -200 -200 h 55 55 v 124 c 0,69 4,136 9,149 12,32 64,53 99,41 43,-15 52,-47 52,-186 v -128 h 55 55 v 135 c 0,134 0,136 26,160 45,42 104,29 123,-26 6,-18 11,-85 11,-150 v -119 h 56 56 l -4,148 c -4,175 -16,209 -82,242 -56,27 -112,25 -169,-4 l -47,-23 -47,23 c -56,29 -105,30 -155,3 z"
       id="path16" />
    <path
       d="m 5673,2266 c -96,-31 -143,-94 -143,-195 0,-71 12,-106 48,-145 66,-71 193,-88 284,-39 47,26 81,64 62,70 -5,2 -22,11 -39,21 -29,18 -31,18 -58,-2 -42,-31 -127,-29 -161,3 -50,47 -40,51 134,51 h 160 v 33 c 0,95 -66,183 -153,205 -57,15 -81,14 -134,-2 z m 141,-112 c 46,-47 37,-54 -74,-54 -112,0 -123,9 -69,54 43,36 106,36 143,0 z"
       id="path18" />
    <path
       d="m 2050,2070 v -200 h 55 55 v 200 200 h -55 -55 z"
       id="path20" />
    <path
       d="m 2230,2264 c 0,-16 206,-404 213,-401 5,1 55,93 112,205 l 103,202 h -62 -61 l -44,-95 c -24,-52 -46,-95 -50,-95 -3,0 -26,43 -50,95 l -44,95 h -58 c -33,0 -59,-3 -59,-6 z"
       id="path22" />
    <path
       d="m 2720,2070 v -200 h 55 55 v 200 200 h -55 -55 z"
       id="path24" />
    <path
       d="m 3530,1709 c 0,-5 5,-7 10,-4 6,3 10,8 10,11 0,2 -4,4 -10,4 -5,0 -10,-5 -10,-11 z"
       id="path26" />
    <path
       d="m 1930,1620 c 0,-54 2,-60 21,-60 41,0 59,18 56,58 -3,50 -13,62 -48,62 -29,0 -29,0 -29,-60 z m 55,30 c 0,-8 -8,-16 -17,-18 -13,-2 -18,3 -18,18 0,15 5,20 18,18 9,-2 17,-10 17,-18 z m 3,-53 c 2,-12 -3,-17 -17,-17 -15,0 -21,6 -21,21 0,25 33,22 38,-4 z"
       id="path28" />
    <path
       d="m 2120,1620 v -60 h 34 c 19,0 38,5 41,10 4,6 -7,10 -24,10 -30,0 -31,1 -31,50 0,28 -4,50 -10,50 -6,0 -10,-27 -10,-60 z"
       id="path30" />
    <path
       d="m 2317,1624 c -16,-31 -25,-59 -22,-63 4,-3 11,2 16,12 13,23 65,23 78,0 5,-10 13,-15 16,-11 9,8 -40,118 -52,118 -5,0 -21,-25 -36,-56 z m 46,6 c 4,-15 0,-20 -14,-20 -17,0 -18,3 -9,20 6,11 12,20 14,20 2,0 6,-9 9,-20 z"
       id="path32" />
    <path
       d="m 2512,1625 c 3,-63 20,-74 28,-19 l 5,37 23,-42 c 13,-22 27,-41 33,-41 5,0 9,27 9,60 0,33 -4,60 -10,60 -5,0 -10,-17 -10,-37 v -38 l -25,38 c -38,56 -57,50 -53,-18 z"
       id="path34" />
    <path
       d="m 2737,1662 c -21,-23 -22,-66 -2,-82 9,-7 34,-13 57,-14 39,-1 41,0 44,33 8,68 -58,109 -99,63 z m 77,-18 c 9,-24 7,-46 -4,-39 -5,3 -10,-1 -10,-9 0,-19 -31,-21 -48,-4 -13,13 -16,50 -5,61 13,13 61,7 67,-9 z"
       id="path36" />
    <path
       d="m 2943,1633 c 7,-69 47,-93 87,-53 21,21 29,100 10,100 -5,0 -10,-17 -10,-39 0,-41 -20,-67 -45,-57 -10,4 -15,19 -15,51 0,35 -4,45 -16,45 -14,0 -16,-8 -11,-47 z"
       id="path38" />
    <path
       d="m 3160,1620 v -60 h 35 c 19,0 35,5 35,10 0,6 -11,10 -25,10 -37,0 -35,37 3,43 l 27,4 -27,2 c -36,1 -39,31 -3,31 14,0 25,5 25,10 0,6 -16,10 -35,10 h -35 z"
       id="path40" />
    <path
       d="m 3340,1619 c 0,-37 4,-58 10,-54 6,3 10,15 10,26 0,28 29,23 36,-6 3,-14 10,-25 15,-25 11,0 10,8 0,35 -5,11 -4,28 1,38 13,25 -7,47 -43,47 -29,0 -29,-1 -29,-61 z m 53,37 c 7,-16 -1,-26 -20,-26 -7,0 -13,9 -13,20 0,23 25,27 33,6 z"
       id="path42" />
    <path
       d="m 3530,1619 c 0,-37 4,-58 10,-54 6,3 10,31 10,61 0,30 -4,54 -10,54 -6,0 -10,-27 -10,-61 z"
       id="path44" />
    <path
       d="m 3676,1623 c -15,-31 -24,-59 -20,-62 3,-3 10,2 15,12 13,23 65,23 78,0 5,-10 12,-15 15,-12 8,8 -41,119 -53,119 -5,0 -21,-25 -35,-57 z m 48,2 c 4,-10 -1,-15 -14,-15 -13,0 -18,5 -14,15 4,8 10,15 14,15 4,0 10,-7 14,-15 z"
       id="path46" />
    <path
       d="m 4010,1619 c 0,-37 4,-58 10,-54 6,3 10,21 10,38 v 32 l 19,-24 19,-24 15,29 16,29 1,-42 c 0,-24 5,-43 10,-43 6,0 10,27 10,60 0,67 -11,75 -38,30 l -18,-29 -18,29 c -26,45 -36,36 -36,-31 z"
       id="path48" />
    <path
       d="m 4255,1630 c -27,-53 -34,-87 -11,-57 17,22 65,22 82,0 23,-33 22,-8 -3,50 -14,31 -29,57 -34,57 -5,0 -20,-22 -34,-50 z m 45,-6 c 0,-8 -7,-14 -15,-14 -17,0 -18,2 -9,24 7,18 24,12 24,-10 z"
       id="path50" />
    <path
       d="m 4420,1673 c 0,-5 9,-19 20,-33 11,-14 20,-37 20,-52 0,-16 5,-28 10,-28 6,0 10,12 10,26 0,15 9,42 21,60 24,39 8,47 -18,8 l -16,-26 -14,26 c -13,24 -33,36 -33,19 z"
       id="path52" />
    <path
       d="m 4626,1664 c -20,-20 -21,-68 0,-84 40,-34 104,-5 104,45 0,47 -70,73 -104,39 z m 80,-29 c 11,-43 -34,-73 -64,-43 -13,13 -16,50 -5,61 3,4 19,7 34,7 22,0 30,-6 35,-25 z"
       id="path54" />
    <path
       d="m 4840,1619 c 0,-37 4,-58 10,-54 6,3 10,15 10,26 0,26 22,20 35,-9 5,-12 13,-22 17,-22 10,0 10,4 -1,33 -5,13 -5,30 -1,37 14,23 -8,50 -40,50 -30,0 -30,0 -30,-61 z m 49,38 c 12,-15 5,-27 -16,-27 -7,0 -13,9 -13,20 0,23 13,26 29,7 z"
       id="path56" />
    <path
       d="m 5030,1619 c 0,-37 4,-58 10,-54 6,3 10,31 10,61 0,30 -4,54 -10,54 -6,0 -10,-27 -10,-61 z"
       id="path58" />
    <path
       d="m 5160,1665 c -15,-18 -1,-40 31,-50 30,-10 25,-39 -5,-31 -14,3 -27,2 -30,-3 -3,-5 6,-12 20,-15 51,-13 75,41 28,63 -27,12 -28,38 0,33 9,-2 16,2 16,8 0,15 -46,12 -60,-5 z"
       id="path60" />
    <path
       d="m 5330,1670 c 0,-5 7,-10 15,-10 11,0 15,-12 15,-44 0,-25 5,-48 10,-51 6,-4 10,13 10,44 0,38 4,51 14,51 8,0 18,5 21,10 4,6 -12,10 -39,10 -25,0 -46,-4 -46,-10 z"
       id="path62" />
    <path
       d="m 5517,1623 c -26,-57 -27,-84 -3,-50 17,22 65,22 82,0 23,-30 16,4 -11,57 -14,28 -29,50 -34,50 -4,0 -20,-26 -34,-57 z m 53,-5 c 0,-5 -7,-8 -15,-8 -15,0 -20,21 -8,33 7,7 23,-11 23,-25 z"
       id="path64" />
  </g>
  <g
     inkscape:groupmode="layer"
     id="layer3"
     inkscape:label="texto"
     style="display:none" />
</svg>
