<?xml version="1.0" standalone="no"?>
<!DOCTYPE svg PUBLIC "-//W3C//DTD SVG 20010904//EN"
 "http://www.w3.org/TR/2001/REC-SVG-20010904/DTD/svg10.dtd">
<svg version="1.0" xmlns="http://www.w3.org/2000/svg"
 width="651.000000pt" height="546.000000pt" viewBox="0 0 651.000000 546.000000"
 preserveAspectRatio="xMidYMid meet">

<g transform="translate(0.000000,546.000000) scale(0.100000,-0.100000)"
fill="#000000" stroke="none">
<path d="M0 2730 l0 -2730 3255 0 3255 0 0 2730 0 2730 -3255 0 -3255 0 0
-2730z m3390 1738 l115 -101 5 89 c3 49 9 95 13 102 6 9 49 12 157 12 137 0
150 -2 160 -19 6 -12 10 -112 10 -253 l1 -233 142 -122 c78 -67 173 -151 212
-186 67 -61 69 -65 58 -90 -8 -16 -21 -27 -32 -27 -17 0 -409 329 -453 382
-16 18 -18 45 -18 244 l0 224 -85 0 -85 0 0 -119 c0 -183 -6 -183 -203 -11
-115 101 -130 111 -145 98 -9 -8 -221 -192 -470 -409 -250 -217 -462 -398
-473 -403 -12 -6 -24 -5 -34 4 -35 29 -18 53 117 170 73 63 296 258 496 433
200 174 371 317 380 317 10 0 69 -46 132 -102z m1215 -1142 c83 -22 125 -43
125 -63 0 -19 -25 -95 -40 -124 -9 -16 -12 -16 -61 2 -77 30 -165 35 -227 15
-109 -37 -157 -125 -150 -279 4 -109 29 -164 94 -210 36 -25 53 -30 125 -34
60 -3 100 0 139 12 92 27 90 28 115 -46 13 -37 19 -72 15 -79 -15 -24 -124
-52 -225 -57 -166 -9 -262 20 -350 103 -79 76 -118 188 -117 334 2 268 169
436 437 439 39 0 93 -5 120 -13z m-2667 -348 l2 -338 188 -2 187 -3 3 -60 c2
-32 1 -70 -3 -82 l-5 -23 -278 2 -277 3 -3 423 -2 423 92 -3 93 -3 3 -337z
m690 -72 c1 -293 -1 -413 -9 -422 -18 -21 -175 -19 -183 2 -8 22 -8 819 1 828
4 4 48 5 98 4 l90 -3 3 -409z m365 269 c78 -227 156 -438 166 -448 5 -5 13 -2
19 9 11 22 101 270 164 454 l43 125 98 3 c76 2 97 0 97 -11 0 -41 -195 -548
-288 -749 l-41 -88 -83 0 c-46 0 -88 4 -93 8 -33 23 -334 774 -335 835 0 4 46
6 103 5 l102 -3 48 -140z m895 -277 l-3 -423 -90 0 -90 0 -3 423 -2 422 95 0
95 0 -2 -422z m-893 -630 c142 -73 212 -229 184 -410 -31 -199 -166 -307 -372
-296 -210 11 -327 143 -327 369 0 177 75 295 223 350 77 29 222 22 292 -13z
m-1085 -106 c0 -86 4 -132 12 -140 14 -14 225 -17 245 -4 8 5 13 49 15 137 l3
130 80 0 80 0 3 -335 c1 -184 0 -345 -3 -357 -5 -21 -11 -23 -85 -23 l-80 0 0
149 c0 127 -2 150 -16 155 -30 11 -229 7 -242 -6 -8 -8 -12 -57 -12 -155 l0
-143 -80 0 -80 0 0 353 c0 195 3 357 7 360 3 4 39 7 80 7 l73 0 0 -128z m1632
66 c17 -35 59 -127 93 -205 36 -81 66 -138 72 -135 5 4 31 57 57 118 26 61 66
149 89 195 l42 84 73 3 c52 2 74 -1 77 -10 12 -34 54 -570 55 -700 0 -11 -148
-10 -154 0 -2 4 -7 82 -11 173 -3 90 -8 188 -11 218 -7 67 -10 64 -93 -134
-35 -82 -68 -156 -74 -162 -5 -7 -31 -13 -57 -13 -26 0 -52 6 -58 13 -9 10
-28 53 -125 284 -12 29 -25 53 -29 53 -10 0 -17 -68 -24 -255 -3 -93 -8 -173
-11 -177 -2 -5 -38 -8 -79 -8 l-74 0 0 53 c0 115 42 615 55 655 3 8 28 12 80
12 l75 0 32 -62z m1183 -8 l0 -65 -157 -3 -158 -3 0 -69 0 -70 140 0 140 0 0
-65 0 -65 -140 0 -140 0 0 -85 0 -85 170 0 170 0 0 -70 0 -70 -249 0 c-218 0
-250 2 -255 16 -8 22 -8 689 1 698 4 3 113 5 242 4 l236 -3 0 -65z m-2411
-1049 c20 -47 36 -90 36 -98 0 -23 -15 -14 -27 17 -10 27 -15 30 -57 30 -41 0
-47 -3 -62 -32 -26 -51 -29 -14 -4 45 13 29 31 72 42 96 11 26 22 40 27 35 5
-5 25 -47 45 -93z m2395 0 c22 -55 41 -102 41 -105 0 -17 -21 -2 -32 22 -12
23 -19 27 -58 27 -39 0 -46 -4 -58 -27 -14 -30 -38 -39 -28 -10 25 66 81 192
87 192 4 0 25 -45 48 -99z m-2898 7 l42 -83 38 83 c21 45 43 82 49 82 6 0 10
-37 10 -100 0 -60 -4 -100 -10 -100 -6 0 -10 31 -11 73 l0 72 -35 -70 c-19
-38 -38 -71 -42 -73 -4 -1 -24 30 -44 70 l-37 73 0 -72 c-1 -42 -5 -73 -11
-73 -6 0 -10 40 -10 100 0 59 4 100 10 100 5 0 29 -37 51 -82z m768 36 l25
-46 23 39 c12 21 23 41 23 46 0 4 7 7 16 7 13 0 10 -11 -15 -55 -20 -36 -31
-69 -31 -94 0 -22 -4 -43 -10 -46 -6 -4 -10 9 -10 31 0 24 -13 60 -35 101 -23
40 -31 63 -23 63 7 0 24 -21 37 -46z m452 36 c24 -13 49 -61 49 -96 0 -35 -59
-94 -94 -94 -35 0 -83 25 -96 49 -46 88 53 187 141 141z m383 -6 c23 -23 20
-52 -9 -79 l-26 -23 21 -34 c22 -36 25 -48 11 -48 -5 0 -22 21 -38 48 l-28 47
-3 -40 c-2 -22 -8 -44 -13 -49 -5 -6 -9 29 -9 92 l0 102 39 0 c23 0 46 -7 55
-16z m256 -84 c0 -60 -4 -100 -10 -100 -6 0 -10 40 -10 100 0 60 4 100 10 100
6 0 10 -40 10 -100z m338 88 c14 -14 16 -48 3 -48 -5 0 -11 9 -14 20 -6 22
-36 27 -55 8 -21 -21 -13 -33 33 -56 37 -18 45 -27 45 -49 0 -54 -54 -81 -92
-46 -19 17 -25 53 -8 53 6 0 10 -7 10 -15 0 -22 38 -39 56 -24 26 21 15 44
-31 67 -47 23 -56 43 -35 83 12 22 68 27 88 7z m357 2 c-3 -5 -17 -10 -31 -10
-24 0 -24 -1 -24 -90 0 -53 -4 -90 -10 -90 -6 0 -10 37 -10 90 0 89 0 90 -25
90 -14 0 -25 5 -25 10 0 6 29 10 66 10 41 0 63 -4 59 -10z"/>
<path d="M2747 2139 c-49 -26 -85 -83 -97 -152 -10 -64 0 -149 24 -195 48 -93
186 -120 268 -51 90 73 103 260 25 354 -53 65 -146 83 -220 44z"/>
<path d="M2247 1185 c-9 -20 -17 -38 -17 -40 0 -3 16 -5 35 -5 40 0 41 3 17
48 l-18 33 -17 -36z"/>
<path d="M4646 1192 c-22 -44 -20 -52 14 -52 34 0 35 5 16 51 l-14 33 -16 -32z"/>
<path d="M2921 1214 c-40 -50 -18 -114 44 -130 50 -12 102 43 90 97 -14 61
-96 81 -134 33z"/>
<path d="M3340 1205 c0 -28 4 -35 19 -35 19 0 51 24 51 39 0 15 -25 31 -47 31
-20 0 -23 -5 -23 -35z"/>
</g>
</svg>
