<?xml version="1.0" encoding="UTF-8" standalone="no"?>
<svg
   version="1.0"
   width="759.000000pt"
   height="496.000000pt"
   viewBox="0 0 759.000000 496.000000"
   preserveAspectRatio="xMidYMid meet"
   id="svg68"
   sodipodi:docname="Livic Home 2.svg"
   inkscape:version="1.2.2 (732a01da63, 2022-12-09)"
   xmlns:inkscape="http://www.inkscape.org/namespaces/inkscape"
   xmlns:sodipodi="http://sodipodi.sourceforge.net/DTD/sodipodi-0.dtd"
   xmlns:xlink="http://www.w3.org/1999/xlink"
   xmlns="http://www.w3.org/2000/svg"
   xmlns:svg="http://www.w3.org/2000/svg">
  <defs
     id="defs72">
    <linearGradient
       inkscape:collect="always"
       id="linearGradient1178">
      <stop
         style="stop-color:#ffe1ff;stop-opacity:1;"
         offset="0"
         id="stop1174" />
      <stop
         style="stop-color:#000000;stop-opacity:1;"
         offset="1"
         id="stop1176" />
    </linearGradient>
    <linearGradient
       inkscape:collect="always"
       id="linearGradient351">
      <stop
         style="stop-color:#2ba5a9;stop-opacity:1;"
         offset="0"
         id="stop347" />
      <stop
         style="stop-color:#5a0080;stop-opacity:1;"
         offset="1"
         id="stop349" />
    </linearGradient>
    <linearGradient
       inkscape:collect="always"
       xlink:href="#linearGradient351"
       id="linearGradient353"
       x1="-33.872726"
       y1="-10.663636"
       x2="787.22729"
       y2="504.32727"
       gradientUnits="userSpaceOnUse" />
    <linearGradient
       inkscape:collect="always"
       xlink:href="#linearGradient1178"
       id="linearGradient1180"
       x1="807.29999"
       y1="49.55455"
       x2="244.00908"
       y2="323.67273"
       gradientUnits="userSpaceOnUse"
       gradientTransform="translate(20.072727,-16.309094)" />
  </defs>
  <sodipodi:namedview
     id="namedview70"
     pagecolor="#ffffff"
     bordercolor="#000000"
     borderopacity="0.25"
     inkscape:showpageshadow="2"
     inkscape:pageopacity="0.0"
     inkscape:pagecheckerboard="0"
     inkscape:deskcolor="#d1d1d1"
     inkscape:document-units="pt"
     showgrid="false"
     inkscape:zoom="1.1956522"
     inkscape:cx="482.58182"
     inkscape:cy="330.36364"
     inkscape:window-width="1920"
     inkscape:window-height="1057"
     inkscape:window-x="-8"
     inkscape:window-y="-8"
     inkscape:window-maximized="1"
     inkscape:current-layer="layer1" />
  <g
     inkscape:groupmode="layer"
     id="layer1"
     inkscape:label="fondo"
     style="display:inline">
    <rect
       style="fill:url(#linearGradient353);fill-opacity:1;stroke-width:0.75"
       id="rect285"
       width="811.06366"
       height="515.61816"
       x="-30.736364"
       y="-10.663636" />
    <text
       xml:space="preserve"
       style="font-size:64px;fill:#800080;stroke-width:0.75"
       x="203.86363"
       y="362.56363"
       id="text1998"><tspan
         sodipodi:role="line"
         id="tspan1996"
         style="font-style:normal;font-variant:normal;font-weight:normal;font-stretch:normal;font-size:64px;font-family:'MS UI Gothic';-inkscape-font-specification:'MS UI Gothic';stroke-width:0.75"
         x="203.86363"
         y="362.56363">Livic Home</tspan></text>
  </g>
  <g
     inkscape:groupmode="layer"
     id="layer2"
     inkscape:label="prefusion"
     style="display:none">
    <rect
       style="fill:url(#linearGradient1180);fill-opacity:1;stroke-width:0.75"
       id="rect1172"
       width="627.27271"
       height="319.90909"
       x="84.054543"
       y="75.272736" />
  </g>
  <g
     id="g1942"
     style="display:inline">
    <g
       transform="matrix(0.1,0,0,-0.1,5.0181818,453.34545)"
       fill="#000000"
       stroke="none"
       id="g66">
      <path
         d="m 3728,3422 c -141,-116 -787,-684 -791,-695 -8,-21 8,-39 31,-35 12,1 189,149 393,328 205,179 381,331 391,338 16,12 30,3 126,-81 124,-108 125,-109 146,-101 13,5 16,24 16,105 v 99 h 75 75 v -188 -189 l 181,-156 c 169,-147 208,-172 224,-147 14,22 -12,51 -175,190 l -169,145 v 201 c -1,175 -3,203 -17,208 -32,12 -231,7 -242,-7 -6,-7 -12,-46 -14,-86 l -3,-73 -85,74 c -117,103 -121,104 -162,70 z"
         id="path2" />
      <path
         d="m 2066,2414 c -36,-36 -9,-94 44,-94 30,0 60,30 60,61 0,41 -73,65 -104,33 z"
         id="path4" />
      <path
         d="m 2736,2414 c -36,-35 -6,-94 47,-94 27,0 57,32 57,61 0,41 -73,65 -104,33 z"
         id="path6" />
      <path
         d="m 1580,2140 v -270 h 200 200 v 45 45 h -140 -140 l -2,223 -3,222 -57,3 -58,3 z"
         id="path8" />
      <path
         d="m 3660,2140 v -270 h 55 54 l 3,103 3,102 128,3 127,3 v -106 -105 h 55 55 v 270 270 h -55 -55 v -115 -115 h -130 -130 v 115 115 h -55 -55 z"
         id="path10" />
      <path
         d="m 3094,2270 c -194,-46 -223,-299 -46,-389 49,-25 145,-28 195,-7 31,12 97,77 97,95 0,4 -19,15 -41,24 -41,16 -42,16 -70,-8 -37,-31 -63,-38 -104,-31 -84,16 -116,133 -54,195 41,42 103,43 149,4 31,-26 34,-26 73,-12 22,8 42,19 44,26 7,21 -69,83 -120,98 -55,16 -75,17 -123,5 z"
         id="path12" />
      <path
         d="m 4389,2264 c -95,-29 -161,-142 -139,-239 37,-162 251,-223 369,-104 46,45 62,84 62,144 0,96 -65,181 -157,204 -54,14 -78,13 -135,-5 z m 144,-105 c 76,-59 41,-190 -55,-205 -108,-18 -171,124 -88,199 39,34 104,38 143,6 z"
         id="path14" />
      <path
         d="m 4928,2259 c -32,-16 -38,-17 -38,-4 0,12 -12,15 -55,15 h -55 v -200 -200 h 55 55 v 124 c 0,69 4,136 9,149 12,32 64,53 99,41 43,-15 52,-47 52,-186 v -128 h 55 55 v 135 c 0,134 0,136 26,160 45,42 104,29 123,-26 6,-18 11,-85 11,-150 v -119 h 56 56 l -4,148 c -4,175 -16,209 -82,242 -56,27 -112,25 -169,-4 l -47,-23 -47,23 c -56,29 -105,30 -155,3 z"
         id="path16" />
      <path
         d="m 5673,2266 c -96,-31 -143,-94 -143,-195 0,-71 12,-106 48,-145 66,-71 193,-88 284,-39 47,26 81,64 62,70 -5,2 -22,11 -39,21 -29,18 -31,18 -58,-2 -42,-31 -127,-29 -161,3 -50,47 -40,51 134,51 h 160 v 33 c 0,95 -66,183 -153,205 -57,15 -81,14 -134,-2 z m 141,-112 c 46,-47 37,-54 -74,-54 -112,0 -123,9 -69,54 43,36 106,36 143,0 z"
         id="path18" />
      <path
         d="m 2050,2070 v -200 h 55 55 v 200 200 h -55 -55 z"
         id="path20" />
      <path
         d="m 2230,2264 c 0,-16 206,-404 213,-401 5,1 55,93 112,205 l 103,202 h -62 -61 l -44,-95 c -24,-52 -46,-95 -50,-95 -3,0 -26,43 -50,95 l -44,95 h -58 c -33,0 -59,-3 -59,-6 z"
         id="path22" />
      <path
         d="m 2720,2070 v -200 h 55 55 v 200 200 h -55 -55 z"
         id="path24" />
      <path
         d="m 3530,1709 c 0,-5 5,-7 10,-4 6,3 10,8 10,11 0,2 -4,4 -10,4 -5,0 -10,-5 -10,-11 z"
         id="path26" />
      <path
         d="m 1930,1620 c 0,-54 2,-60 21,-60 41,0 59,18 56,58 -3,50 -13,62 -48,62 -29,0 -29,0 -29,-60 z m 55,30 c 0,-8 -8,-16 -17,-18 -13,-2 -18,3 -18,18 0,15 5,20 18,18 9,-2 17,-10 17,-18 z m 3,-53 c 2,-12 -3,-17 -17,-17 -15,0 -21,6 -21,21 0,25 33,22 38,-4 z"
         id="path28" />
      <path
         d="m 2120,1620 v -60 h 34 c 19,0 38,5 41,10 4,6 -7,10 -24,10 -30,0 -31,1 -31,50 0,28 -4,50 -10,50 -6,0 -10,-27 -10,-60 z"
         id="path30" />
      <path
         d="m 2317,1624 c -16,-31 -25,-59 -22,-63 4,-3 11,2 16,12 13,23 65,23 78,0 5,-10 13,-15 16,-11 9,8 -40,118 -52,118 -5,0 -21,-25 -36,-56 z m 46,6 c 4,-15 0,-20 -14,-20 -17,0 -18,3 -9,20 6,11 12,20 14,20 2,0 6,-9 9,-20 z"
         id="path32" />
      <path
         d="m 2512,1625 c 3,-63 20,-74 28,-19 l 5,37 23,-42 c 13,-22 27,-41 33,-41 5,0 9,27 9,60 0,33 -4,60 -10,60 -5,0 -10,-17 -10,-37 v -38 l -25,38 c -38,56 -57,50 -53,-18 z"
         id="path34" />
      <path
         d="m 2737,1662 c -21,-23 -22,-66 -2,-82 9,-7 34,-13 57,-14 39,-1 41,0 44,33 8,68 -58,109 -99,63 z m 77,-18 c 9,-24 7,-46 -4,-39 -5,3 -10,-1 -10,-9 0,-19 -31,-21 -48,-4 -13,13 -16,50 -5,61 13,13 61,7 67,-9 z"
         id="path36" />
      <path
         d="m 2943,1633 c 7,-69 47,-93 87,-53 21,21 29,100 10,100 -5,0 -10,-17 -10,-39 0,-41 -20,-67 -45,-57 -10,4 -15,19 -15,51 0,35 -4,45 -16,45 -14,0 -16,-8 -11,-47 z"
         id="path38" />
      <path
         d="m 3160,1620 v -60 h 35 c 19,0 35,5 35,10 0,6 -11,10 -25,10 -37,0 -35,37 3,43 l 27,4 -27,2 c -36,1 -39,31 -3,31 14,0 25,5 25,10 0,6 -16,10 -35,10 h -35 z"
         id="path40" />
      <path
         d="m 3340,1619 c 0,-37 4,-58 10,-54 6,3 10,15 10,26 0,28 29,23 36,-6 3,-14 10,-25 15,-25 11,0 10,8 0,35 -5,11 -4,28 1,38 13,25 -7,47 -43,47 -29,0 -29,-1 -29,-61 z m 53,37 c 7,-16 -1,-26 -20,-26 -7,0 -13,9 -13,20 0,23 25,27 33,6 z"
         id="path42" />
      <path
         d="m 3530,1619 c 0,-37 4,-58 10,-54 6,3 10,31 10,61 0,30 -4,54 -10,54 -6,0 -10,-27 -10,-61 z"
         id="path44" />
      <path
         d="m 3676,1623 c -15,-31 -24,-59 -20,-62 3,-3 10,2 15,12 13,23 65,23 78,0 5,-10 12,-15 15,-12 8,8 -41,119 -53,119 -5,0 -21,-25 -35,-57 z m 48,2 c 4,-10 -1,-15 -14,-15 -13,0 -18,5 -14,15 4,8 10,15 14,15 4,0 10,-7 14,-15 z"
         id="path46" />
      <path
         d="m 4010,1619 c 0,-37 4,-58 10,-54 6,3 10,21 10,38 v 32 l 19,-24 19,-24 15,29 16,29 1,-42 c 0,-24 5,-43 10,-43 6,0 10,27 10,60 0,67 -11,75 -38,30 l -18,-29 -18,29 c -26,45 -36,36 -36,-31 z"
         id="path48" />
      <path
         d="m 4255,1630 c -27,-53 -34,-87 -11,-57 17,22 65,22 82,0 23,-33 22,-8 -3,50 -14,31 -29,57 -34,57 -5,0 -20,-22 -34,-50 z m 45,-6 c 0,-8 -7,-14 -15,-14 -17,0 -18,2 -9,24 7,18 24,12 24,-10 z"
         id="path50" />
      <path
         d="m 4420,1673 c 0,-5 9,-19 20,-33 11,-14 20,-37 20,-52 0,-16 5,-28 10,-28 6,0 10,12 10,26 0,15 9,42 21,60 24,39 8,47 -18,8 l -16,-26 -14,26 c -13,24 -33,36 -33,19 z"
         id="path52" />
      <path
         d="m 4626,1664 c -20,-20 -21,-68 0,-84 40,-34 104,-5 104,45 0,47 -70,73 -104,39 z m 80,-29 c 11,-43 -34,-73 -64,-43 -13,13 -16,50 -5,61 3,4 19,7 34,7 22,0 30,-6 35,-25 z"
         id="path54" />
      <path
         d="m 4840,1619 c 0,-37 4,-58 10,-54 6,3 10,15 10,26 0,26 22,20 35,-9 5,-12 13,-22 17,-22 10,0 10,4 -1,33 -5,13 -5,30 -1,37 14,23 -8,50 -40,50 -30,0 -30,0 -30,-61 z m 49,38 c 12,-15 5,-27 -16,-27 -7,0 -13,9 -13,20 0,23 13,26 29,7 z"
         id="path56" />
      <path
         d="m 5030,1619 c 0,-37 4,-58 10,-54 6,3 10,31 10,61 0,30 -4,54 -10,54 -6,0 -10,-27 -10,-61 z"
         id="path58" />
      <path
         d="m 5160,1665 c -15,-18 -1,-40 31,-50 30,-10 25,-39 -5,-31 -14,3 -27,2 -30,-3 -3,-5 6,-12 20,-15 51,-13 75,41 28,63 -27,12 -28,38 0,33 9,-2 16,2 16,8 0,15 -46,12 -60,-5 z"
         id="path60" />
      <path
         d="m 5330,1670 c 0,-5 7,-10 15,-10 11,0 15,-12 15,-44 0,-25 5,-48 10,-51 6,-4 10,13 10,44 0,38 4,51 14,51 8,0 18,5 21,10 4,6 -12,10 -39,10 -25,0 -46,-4 -46,-10 z"
         id="path62" />
      <path
         d="m 5517,1623 c -26,-57 -27,-84 -3,-50 17,22 65,22 82,0 23,-30 16,4 -11,57 -14,28 -29,50 -34,50 -4,0 -20,-26 -34,-57 z m 53,-5 c 0,-5 -7,-8 -15,-8 -15,0 -20,21 -8,33 7,7 23,-11 23,-25 z"
         id="path64" />
    </g>
  </g>
</svg>
